<?xml version="1.0" standalone="no"?>
<!DOCTYPE svg PUBLIC "-//W3C//DTD SVG 20010904//EN"
 "http://www.w3.org/TR/2001/REC-SVG-20010904/DTD/svg10.dtd">
<svg version="1.0" xmlns="http://www.w3.org/2000/svg"
 width="1773.000000pt" height="1773.000000pt" viewBox="0 0 1773.000000 1773.000000"
 preserveAspectRatio="xMidYMid meet">
<metadata>
Created by potrace 1.11, written by Peter Selinger 2001-2013
</metadata>
<g transform="translate(0.000000,1773.000000) scale(0.100000,-0.100000)"
fill="#000000" stroke="none">
<path d="M12172 16559 c-165 -333 -393 -606 -817 -977 -28 -24 -187 -155 -355
-292 -494 -402 -696 -583 -875 -785 -15 -16 -37 -41 -49 -55 -230 -258 -455
-678 -572 -1067 -62 -205 -128 -497 -139 -609 -2 -27 -8 -78 -12 -114 -4 -36
-8 -166 -7 -290 1 -214 3 -239 38 -435 15 -78 71 -252 117 -360 l38 -89 -51
-61 c-29 -33 -55 -62 -58 -65 -7 -6 -216 -257 -234 -280 -6 -9 -27 -36 -47
-60 -76 -95 -338 -488 -339 -508 0 -4 -7 -15 -15 -25 -13 -18 -14 -18 -33 1
-40 40 -126 103 -185 136 -66 37 -216 90 -281 100 -35 5 -37 4 -20 -8 10 -8
38 -24 61 -37 134 -76 264 -231 309 -369 l16 -48 -70 -144 c-264 -544 -521
-1299 -657 -1933 -3 -11 -17 -77 -32 -146 l-27 -126 -50 -2 c-97 -4 -240 91
-328 217 -44 65 -268 428 -268 437 0 10 -169 280 -218 349 -90 126 -264 288
-362 338 -14 7 -27 16 -30 19 -11 14 -219 109 -291 132 -81 28 -212 62 -269
72 -19 3 -42 8 -50 10 -8 2 -37 6 -65 10 -27 3 -66 8 -85 10 -194 25 -631 25
-890 0 -101 -9 -172 -17 -187 -20 -10 -2 -22 -4 -28 -4 -5 -1 26 -24 69 -52
95 -63 242 -202 327 -310 90 -114 232 -321 359 -524 95 -152 245 -339 359
-448 245 -233 623 -404 996 -452 56 -7 251 -8 263 -2 4 3 30 8 57 11 77 11
182 44 269 87 l79 39 26 -22 c71 -64 128 -154 162 -253 38 -110 43 -169 25
-262 -9 -43 -18 -90 -21 -105 -3 -16 -7 -40 -10 -55 -8 -39 -25 -133 -31 -163
-2 -14 -9 -45 -14 -70 -5 -25 -17 -90 -26 -145 -9 -55 -18 -109 -20 -120 -2
-11 -7 -33 -9 -50 -9 -50 -25 -139 -29 -160 -2 -11 -7 -40 -11 -65 -4 -25 -9
-54 -12 -65 -2 -11 -10 -54 -18 -95 -101 -539 -206 -1014 -269 -1215 -1 -5
-11 -37 -20 -70 -81 -279 -207 -604 -334 -861 -57 -114 -165 -309 -182 -328
-5 -5 -58 12 -121 39 -129 54 -348 128 -429 144 -30 6 -68 13 -85 16 -16 4
-131 8 -255 10 -197 3 -294 -2 -390 -19 -205 -38 -335 -83 -545 -187 -264
-131 -458 -311 -598 -554 -69 -120 -107 -220 -132 -350 -7 -36 -8 -193 -1
-203 3 -5 7 -26 10 -48 32 -246 263 -471 545 -529 9 -2 36 -8 61 -13 130 -30
354 -33 480 -7 14 3 45 8 70 11 25 3 63 10 85 16 22 5 51 12 65 14 14 3 34 8
45 11 11 4 22 8 25 8 34 8 99 28 115 34 11 5 58 24 105 41 360 138 727 394
1043 728 32 34 63 62 69 62 5 0 32 -17 59 -37 27 -21 77 -59 111 -85 35 -26
135 -103 223 -170 175 -135 274 -207 320 -232 17 -9 46 -26 65 -38 210 -127
677 -297 889 -324 20 -2 43 -7 51 -9 31 -10 242 -35 352 -42 308 -19 617 -2
863 47 28 6 60 12 73 15 119 22 498 136 596 179 17 7 74 30 126 51 487 194
969 571 1359 1064 46 58 94 123 108 145 14 23 29 43 32 46 4 3 36 50 72 105
56 86 83 129 156 250 7 11 16 27 20 35 4 8 30 56 58 105 73 130 93 177 100
231 3 27 7 65 10 84 2 19 7 59 10 88 3 28 7 76 10 105 3 28 8 68 10 87 9 64
14 114 20 179 3 36 8 68 11 73 3 4 1 8 -5 8 -5 0 -13 -10 -16 -22 -4 -13 -36
-97 -72 -188 -122 -309 -320 -686 -506 -960 -68 -101 -201 -282 -229 -311 -7
-8 -35 -41 -63 -74 -114 -136 -347 -358 -505 -482 -194 -151 -628 -362 -835
-405 -95 -19 -136 -24 -270 -33 -288 -20 -506 -20 -695 0 -87 9 -217 29 -260
39 -14 3 -36 8 -50 10 -118 19 -403 106 -575 175 -315 126 -579 277 -887 509
-101 75 -226 166 -279 202 l-96 64 38 60 c100 160 227 408 309 601 23 55 48
114 55 130 16 38 59 147 62 160 2 6 37 109 78 230 61 180 131 408 150 485 2 8
20 78 40 155 29 112 124 516 140 598 2 10 6 26 9 35 3 9 7 33 10 52 3 19 16
85 30 145 13 61 27 127 30 149 4 21 8 41 10 45 2 3 7 28 10 55 4 27 9 52 11
55 1 3 6 24 9 46 4 22 8 47 11 55 2 8 6 26 9 40 5 31 37 198 42 225 2 11 6 31
9 45 2 14 18 93 35 175 17 83 33 162 35 177 3 16 12 56 20 90 8 35 16 74 18
88 3 14 10 43 16 65 6 22 13 58 17 80 3 22 8 43 10 46 2 3 6 21 9 40 25 145
186 784 256 1014 104 340 119 379 174 461 160 236 409 408 711 488 49 13 109
26 134 30 140 17 175 20 272 20 60 1 108 4 108 7 0 4 -21 10 -47 14 -27 5 -52
9 -58 11 -82 18 -163 25 -331 28 -197 3 -362 -29 -561 -109 -46 -18 -83 -30
-83 -27 0 18 124 288 215 467 310 610 633 1023 1160 1483 49 43 334 258 690
522 649 480 879 737 1096 1226 45 103 142 377 152 435 3 13 12 51 20 84 9 33
18 76 21 95 3 19 8 46 11 60 8 38 23 139 30 195 3 28 8 61 10 75 20 118 28
725 12 935 -13 165 -17 218 -22 255 -2 19 -7 62 -10 95 -13 125 -16 151 -20
175 -5 26 -11 76 -20 150 -18 150 -114 651 -162 846 l-18 72 -53 -109z m-606
-1778 c-116 -118 -149 -156 -260 -301 -204 -267 -362 -523 -521 -843 -84 -169
-190 -410 -202 -462 -1 -5 -20 -59 -42 -120 -39 -111 -216 -653 -310 -955
-119 -377 -163 -510 -172 -510 -11 0 -11 0 -10 140 2 258 51 617 117 850 8 30
21 79 29 108 21 75 105 293 167 430 309 690 684 1233 1126 1630 116 105 136
121 145 115 5 -3 -25 -39 -67 -82z m-5732 -5886 c249 -249 502 -416 886 -585
107 -47 161 -71 238 -106 29 -13 54 -24 57 -24 2 0 32 -13 67 -29 35 -16 107
-48 161 -71 53 -23 97 -44 97 -47 0 -16 -262 32 -399 73 -166 51 -284 105
-461 212 -318 192 -558 403 -748 656 -53 71 -73 114 -25 54 15 -18 72 -78 127
-133z m-114 -5311 c47 -8 99 -17 115 -20 120 -22 413 -145 543 -227 l52 -33
-87 -94 c-49 -51 -125 -126 -170 -166 -270 -236 -834 -539 -1160 -624 -107
-28 -310 -35 -391 -14 -118 31 -202 102 -228 193 -16 52 -19 137 -9 196 35
194 218 481 373 586 96 64 282 148 412 183 70 19 108 25 200 33 41 3 76 7 78
8 7 6 199 -8 272 -21z"/>
</g>
</svg>
